<?xml version="1.0" encoding="utf-8"?>
<svg xmlns="http://www.w3.org/2000/svg" viewBox="1.25 3.25 21.5 17.5" width="21.5px" height="17.5px"><path d="M7,20.75c3.2246,0,5.75-3.8433,5.75-8.75S10.2246,3.25,7,3.25,1.25,7.0933,1.25,12,3.7754,20.75,7,20.75Zm0-16c1.9719,0,3.6777,2.4354,4.1294,5.6008a2,2,0,1,0,0,3.2984C10.6777,16.8146,8.9719,19.25,7,19.25c-2.3037,0-4.25-3.32-4.25-7.25S4.6963,4.75,7,4.75ZM22.75,12c0,4.9067-2.5254,8.75-5.75,8.75a4.7331,4.7331,0,0,1-3.6695-1.9647,11.8282,11.8282,0,0,0,.7465-1.5843A3.65,3.65,0,0,0,17,19.25c1.9719,0,3.6777-2.4354,4.1294-5.6008a2,2,0,1,1,0-3.2984C20.6777,7.1854,18.9719,4.75,17,4.75a3.65,3.65,0,0,0-2.923,2.049,11.8282,11.8282,0,0,0-.7465-1.5843A4.7331,4.7331,0,0,1,17,3.25C20.2246,3.25,22.75,7.0933,22.75,12Z" style="fill: rgb(255, 255, 255);" id="object-0" transform="matrix(1, 0, 0, 1, 0, 8.881784197001252e-16)"/></svg>