<?xml version="1.0" encoding="UTF-8" standalone="no"?>
<svg
   version="1.1"
   id="Layer_1"
   x="0px"
   y="0px"
   width="1800.04"
   viewBox="0 0 1800.04 399.30759"
   enable-background="new 0 0 1600 400"
   xml:space="preserve"
   height="399.30759"
   xmlns="http://www.w3.org/2000/svg"
   xmlns:svg="http://www.w3.org/2000/svg"><defs
   id="defs30" />


























<path
   fill="#90C2D6"
   opacity="1"
   stroke="none"
   d="m 1381.723,183.00948 c 10e-5,60.43138 10e-5,120.36331 10e-5,180.66895 -88.7256,0 -176.9332,0 -266.0642,0 0,-3.31025 7e-4,-6.71854 -10e-5,-10.12687 0,-7.82952 -0.085,-15.66064 0.066,-23.48724 0.028,-1.47275 0.5481,-3.61853 1.5886,-4.28299 9.6322,-6.15088 19.4284,-12.04474 30.2225,-18.65338 0,8.81748 0,16.48636 0,24.52493 67.5847,0 134.4525,0 202.1655,0 0,-1.91305 0,-3.82876 0,-5.7445 7e-4,-45.47806 0.046,-90.95626 -0.08,-136.43396 -0.01,-3.7788 0.9828,-5.93258 4.428,-7.86451 9.0891,-5.09701 17.8685,-10.74618 27.6736,-16.7258 0,6.48922 0,12.05756 10e-5,18.12537 z"
   id="path6"
   style="display:inline;fill:#ffffff;fill-opacity:1;stroke:#ffffff;stroke-width:5;stroke-dasharray:none;stroke-opacity:1" /><path
   fill="#91C3D6"
   opacity="1"
   stroke="none"
   d="m 1161.7026,217.89226 c -3.496,0.002 -6.5114,0.20789 -9.4873,-0.0473 -3.5875,-0.30766 -4.5342,1.17049 -4.5063,4.5918 0.138,16.98712 -0.1223,33.97928 0.183,50.962 0.08,4.4422 -1.3,6.88559 -5.0985,9.02384 -8.7956,4.9512 -17.3328,10.36175 -26.6782,16.01132 0,-37.78931 0,-74.76338 0,-112.23483 1.5566,-0.10401 3.1539,-0.30358 4.7511,-0.30394 47.4672,-0.0108 94.9346,0.0646 142.4011,-0.1023 4.5666,-0.0161 5.5297,1.42 5.4722,5.68457 -0.1992,14.77098 -0.073,14.71977 -12.9213,22.03436 -5.1955,2.958 -10.213,6.22794 -15.3445,9.30065 -0.9197,0.55076 -2.0013,0.83134 -3.3365,1.3689 -0.3578,-2.19187 -0.6409,-3.92637 -1.0266,-6.28898 -24.7128,0 -49.3114,0 -74.4082,-6e-5 z"
   id="path8"
   style="display:inline;fill:#ffffff;fill-opacity:1;stroke:#ffffff;stroke-width:5;stroke-dasharray:none;stroke-opacity:1" /><path
   fill="#92C2D6"
   opacity="1"
   stroke="none"
   d="m 1459.3282,203.40728 c 3.3876,5.71397 6.5856,11.11491 9.7835,16.51584 0.4261,-0.0956 0.8521,-0.19126 1.2782,-0.28688 0.078,-1.53788 0.2222,-3.07566 0.224,-4.61362 0.018,-16.49556 0.1257,-32.9924 -0.062,-49.4858 -0.047,-4.13462 1.2705,-5.73892 5.4285,-5.47514 4.1491,0.26323 8.3382,0.25044 12.49,0.0138 3.8633,-0.2202 5.4164,1.09671 5.1928,5.12718 -0.4791,8.63038 -0.8147,17.27878 -0.8561,25.92149 -0.1116,23.32658 -0.1155,46.65457 0.039,69.98068 0.025,3.82683 -0.8811,5.39226 -4.9832,5.15663 -4.9686,-0.28533 -9.9891,0.33237 -14.9578,0.0482 -1.542,-0.0882 -3.6039,-1.49481 -4.3864,-2.88423 -10.5238,-18.6871 -20.8296,-37.49693 -31.286,-56.22235 -1.5183,-2.71915 -3.5392,-5.15769 -6.5098,-7.53531 0,1.69487 2e-4,3.38974 2e-4,5.08461 -3e-4,18.82832 -0.1131,37.65784 0.089,56.48399 0.043,4.01549 -1.189,5.23439 -5.1028,5.01711 -5.434,-0.30164 -10.8971,-0.0758 -16.7064,-0.0758 -0.1188,-2.21328 -0.2802,-3.82925 -0.281,-5.44529 -0.017,-31.65824 0.059,-63.31685 -0.1066,-94.97423 -0.023,-4.33943 1.1541,-6.0587 5.625,-5.71097 4.3062,0.33492 8.6957,0.42474 12.9808,-0.024 4.6785,-0.48995 7.2145,1.43875 9.4644,5.3439 7.3055,12.67891 14.9436,25.16614 22.6433,38.04021 z"
   id="path9"
   style="display:inline;fill:#ffffff;fill-opacity:1;stroke:#ffffff;stroke-width:5;stroke-dasharray:none;stroke-opacity:1" /><path
   fill="#92C3D6"
   opacity="1"
   stroke="none"
   d="m 1595.6884,244.91054 c -17.1738,24.63092 -53.4785,24.80204 -72.0225,9.0385 -7.8481,-6.67136 -12.5749,-15.25767 -15.0386,-25.23851 -4.1029,-16.62086 -3.6809,-33.02257 3.6246,-48.58342 9.8217,-20.9203 29.8217,-28.65211 50.4639,-25.69118 26.3959,3.78627 41.2734,21.94556 42.1367,48.63558 0.3854,11.91264 -0.27,23.50975 -5.2029,34.52479 -1.0807,2.41333 -2.529,4.66204 -3.9612,7.31424 M 1580.69,200.8164 c -1.0107,-4.17426 -1.6258,-8.49584 -3.114,-12.49237 -3.1659,-8.5029 -9.3607,-13.5046 -18.5737,-14.37319 -10.5673,-0.99631 -19.1846,2.1966 -23.9088,12.25832 -6.6259,14.11227 -6.1791,28.84352 -1.5357,43.22439 3.782,11.71294 11.4507,16.012 24.1913,15.70235 9.6447,-0.23441 16.4794,-6.19008 20.5034,-16.77939 3.3206,-8.73816 2.3441,-17.67575 2.4375,-27.54011 z"
   id="path10"
   style="display:inline;fill:#ffffff;fill-opacity:1;stroke:#ffffff;stroke-width:5;stroke-dasharray:none;stroke-opacity:1" /><path
   fill="#92C2D6"
   opacity="1"
   stroke="none"
   d="m 1751.5599,156.12066 c 5.8927,-0.79262 8.5321,1.20857 10.4539,6.79695 10.6984,31.10936 21.9762,62.01944 33.0262,93.00818 0.6502,1.82344 1.0435,3.73846 1.7234,6.22126 -7.5512,0 -14.5238,0.16623 -21.4735,-0.15783 -1.2075,-0.0563 -2.8588,-1.98397 -3.3781,-3.38971 -1.951,-5.28171 -3.6496,-10.66821 -5.1754,-16.0907 -0.7821,-2.77977 -2.2961,-3.56282 -5.0442,-3.51918 -8.9901,0.14284 -17.9851,0.13417 -26.9758,0.009 -2.7408,-0.0382 -4.2173,0.81346 -5.0726,3.54843 -1.7831,5.70147 -3.7954,11.34164 -6.0043,16.89126 -0.4627,1.16234 -2.1531,2.55365 -3.3243,2.59772 -6.6276,0.2493 -13.2696,0.12051 -20.8205,0.12051 2.4848,-6.30105 4.8017,-11.88932 6.9042,-17.55708 9.9409,-26.79747 19.8817,-53.59528 29.6902,-80.4413 2.9048,-7.95038 2.7071,-8.02286 11.0034,-8.03662 1.3323,-0.002 2.6644,-8.1e-4 4.4674,-7.9e-4 m -8.1182,63.76429 c 4.9327,0 9.8654,0 16.2317,0 -3.6927,-10.21754 -7.0321,-19.45748 -10.3716,-28.69743 -0.4755,0.053 -0.9512,0.10603 -1.427,0.15904 -3.014,8.35862 -6.1289,16.68297 -8.9906,25.09343 -1.0761,3.16251 1.1839,3.5945 4.5575,3.44496 z"
   id="path11"
   style="display:inline;fill:#ffffff;fill-opacity:1;stroke:#ffffff;stroke-width:5;stroke-dasharray:none;stroke-opacity:1" /><path
   fill="#93C3D6"
   opacity="1"
   stroke="none"
   d="m 1659.708,264.83101 c -2.1421,1.6e-4 -3.8223,-0.13815 -5.4712,0.0309 -3.0268,0.3103 -4.4801,-1.11646 -5.4489,-3.87332 -9.0905,-25.86687 -18.2758,-51.7004 -27.4271,-77.54595 -2.873,-8.11445 -5.7252,-16.23626 -8.9027,-25.25033 7.7613,0 14.8401,-0.28553 21.8594,0.2341 1.4531,0.10757 3.245,3.01031 3.9315,4.95913 6.7396,19.13266 13.2648,38.34076 19.8985,57.51091 0.569,1.64446 1.4811,3.1702 2.9495,6.25415 3.1565,-7.51687 5.9675,-13.5892 8.2818,-19.84535 5.5949,-15.12552 10.9051,-30.35647 16.5015,-45.48149 0.5353,-1.44678 2.2218,-3.42816 3.4615,-3.4933 6.611,-0.34735 13.25,-0.16367 21.0434,-0.16367 -2.3011,6.15743 -4.306,11.49627 -6.2925,16.842 -9.5525,25.70488 -19.1001,51.41159 -28.6477,77.11829 -0.2894,0.77963 -0.5656,1.56439 -0.8364,2.35079 -3.5652,10.35621 -3.5647,10.35636 -14.9006,10.35315 z"
   id="path12"
   style="display:inline;fill:#ffffff;fill-opacity:1;stroke:#ffffff;stroke-width:5;stroke-dasharray:none;stroke-opacity:1" /><path
   fill="#256F9C"
   opacity="1"
   stroke="none"
   d="m 1187.4454,4.0076225 c 5.8098,4.653767 11.2541,9.4543965 16.9477,13.9384275 53.2449,41.933785 106.5334,83.8123 159.8013,125.71693 0.9035,0.7107 1.7072,1.54815 3.1372,2.85727 -9.8641,6.02654 -19.407,11.85683 -29.2138,17.84838 -50.3252,-39.58984 -100.5461,-79.097579 -151.0234,-118.807109 -23.9476,18.808217 -47.6973,37.461094 -72.3141,56.795019 0,-22.05771 0,-42.942026 0,-64.120282 -14.3971,0 -28.315,0 -43.0313,0 0,1.771427 2e-4,3.523334 10e-5,5.275245 0,29.492993 -0.062,58.986247 0.074,88.478597 0.015,3.19947 -0.9586,5.15624 -3.46,7.06232 -9.4013,7.16365 -18.5213,14.69936 -27.9863,21.77495 -3.0676,2.2932 -3.9025,4.76808 -3.8961,8.40512 0.1012,57.31976 -10e-4,114.64 0.2049,171.95918 0.017,4.81467 -1.3913,7.47019 -5.5043,9.77313 -8.8391,4.94904 -17.3958,10.40244 -26.5477,15.93961 -0.2246,-1.45538 -0.5247,-2.49295 -0.5251,-3.53064 -0.025,-70.31683 -0.012,-140.63371 -0.08,-210.9505 0,-2.91776 0.7716,-4.8225 3.2096,-6.67468 9.411,-7.14945 18.4446,-14.80088 27.943,-21.82703 3.4388,-2.54378 4.319,-5.34255 4.3094,-9.26687 -0.085,-34.49164 -0.042,-68.983595 -0.038,-103.475458 10e-5,-1.6197645 0,-3.2395285 0,-5.0932335 35.9655,0 71.3705,0 107.2158,0 0,9.5613115 0,18.9758495 0,29.9659365 14.0004,-10.990742 26.9749,-21.176032 39.9878,-31.7028205 0.038,-0.341499 0.5384,-0.341499 0.7884,-0.341492 z"
   id="path2"
   style="display:inline;fill:#d45500;stroke:#d45500;stroke-width:8;stroke-linejoin:round;stroke-dasharray:none;stroke-opacity:1;paint-order:stroke markers fill" /><path
   fill="#256F9C"
   opacity="1"
   stroke="none"
   d="m 811.68439,147.95637 c 4.64405,1.8e-4 8.7909,1.8e-4 12.7884,1.8e-4 0,33.33871 0,66.38038 0,99.88609 36.86444,0 74.22906,0 112.09875,0 0,-32.98674 0,-66.06015 0,-99.51196 11.7334,0 22.97491,0 34.56586,0 0,7.91469 0.10675,15.98816 -0.0209,24.05792 -0.32391,20.48113 -1.01117,40.95963 -1.08716,61.4409 -0.16864,45.48745 -0.0926,90.97603 0.0267,136.4638 0.009,3.57876 -0.93293,5.77743 -4.11878,7.61227 -8.2204,4.73441 -16.22229,9.84765 -24.33136,14.77688 -1.36157,0.82764 -2.82232,1.49198 -4.88195,2.56885 0,-39.10107 0,-77.49377 0,-116.20859 -37.70179,0 -74.94776,0 -112.83222,0 0,38.53757 0,77.0745 0,115.93592 -11.35583,0 -22.07599,0 -33.0863,0 0,-82.24185 0,-164.30231 0,-247.02245 6.83563,0 13.6087,0 20.87896,1.9e-4 z"
   id="path4"
   style="fill:#d45500;stroke:#d45500;stroke-width:8;stroke-linejoin:round;stroke-dasharray:none;stroke-opacity:1;paint-order:stroke markers fill" /><path
   fill="#256F9B"
   opacity="1"
   stroke="none"
   d="m 693.69526,395.30749 c -20.44608,1.2e-4 -40.39215,1.2e-4 -60.5816,1.2e-4 0,-82.70621 0,-164.77329 0,-247.09711 11.51705,0 22.75414,0 33.70358,0 0,11.70273 0.0448,23.14188 -0.008,34.58061 -0.26437,57.82187 -0.56497,115.64354 -0.82211,173.46547 -0.0359,8.06122 1.84326,9.91584 10.04843,9.82559 27.98916,-0.30786 55.97754,-0.68856 83.96618,-1.03836 1.29554,-0.0162 2.59144,-0.002 4.2071,-0.002 0,10.08697 0,19.82614 0,30.26565 -23.4773,0 -46.74567,0 -70.51404,1e-4 z"
   id="path7"
   style="fill:#d45500;stroke:#d45500;stroke-width:8;stroke-linejoin:round;stroke-dasharray:none;stroke-opacity:1;paint-order:stroke markers fill" /><path
   id="path5"
   style="fill:#d45500;stroke:#d45500;stroke-width:8;stroke-linejoin:round;stroke-dasharray:none;stroke-opacity:1;paint-order:stroke markers fill"
   d="m 450.64454,148.19512 v 246.87695 h 137.79687 v -28.81836 c -16.4001,0 -32.44719,0.0164 -48.23242,0.21875 -1.21301,-0.0188 -2.37915,-0.0153 -3.59961,-0.0371 -14.82718,-0.25226 -28.8612,-0.19567 -42.89453,-0.13867 -1.29196,0.9629 -2.59676,2.58572 -3.87695,2.95703 1.27467,-0.37228 2.53482,-2.00514 3.4707,-3.04882 -2.7742,-0.50949 -5.14084,-0.92745 -7.53906,-0.96875 0.86373,1.27837 1.73258,2.92833 2.62305,3.68359 0.29682,0.25175 0.59628,0.40413 0.89843,0.41016 -0.30248,-0.006 -0.60086,-0.15848 -0.89843,-0.41016 -0.89144,-0.75394 -1.76554,-2.39545 -2.64649,-3.64258 0.008,-0.33483 0.10156,-0.3457 0.10156,-0.3457 -0.13024,-0.0831 -0.28769,-0.24291 -0.42382,-0.34375 0.12872,0.0701 0.25042,0.10934 0.35156,0.0762 -0.33838,-0.41773 -0.61694,-0.61667 -0.83789,-0.59375 -0.0229,0.002 -0.0468,0.009 -0.0684,0.0156 0.11606,0.14328 0.21215,0.21325 0.31445,0.30469 -0.10828,-0.0948 -0.1953,-0.12444 -0.3164,-0.25781 -0.0131,-0.0395 0.006,-0.018 0.002,-0.0469 -0.0199,-0.13222 0.0117,-0.21484 0.0117,-0.21484 -1.5477,-0.2959 -3.09488,-0.59183 -5.64844,-1.08008 2.55356,0.48825 4.10074,0.78417 5.55078,0.69727 -0.52481,-2.75469 -0.95303,-5.12787 -1.72461,-7.4375 -0.55055,0.81941 -1.02922,1.64732 -1.51367,2.49023 0.51548,-0.94332 0.99642,-1.91019 1.60547,-2.94922 0.38046,-22.53638 0.32463,-44.55157 0.26953,-66.5664 -1.70998,-0.94742 -2.03383,-2.00076 -1.79297,-3.16797 -0.21449,1.06527 0.13633,2.00754 1.88867,2.74023 0.0276,-2.46167 -0.0392,-4.49474 -0.3457,-6.2832 -0.49076,1.17534 -1.20761,2.31262 -1.47461,3.34766 0.28717,-1.13114 1.02957,-2.36092 1.56445,-3.71289 0.39718,-1.35587 0.46385,-2.10281 0.53125,-2.84961 0.15166,-1.98084 0.83871,-2.95365 2.28125,-2.88477 -1.41448,-0.0644 -2.01304,0.90974 -1.82031,2.88867 30.19574,0.005 59.92996,0.006 89.96484,0.006 v -28.67968 c -0.73025,-0.22411 -1.18942,-0.48893 -1.64843,-0.48829 -29.163,0.0414 -58.32413,0.10728 -87.18946,0.44532 -0.19203,-0.0377 -0.34377,-0.05 -0.54297,-0.0918 -0.50731,-0.3725 -0.95898,-0.38672 -0.95898,-0.38672 -1.24463,-0.0709 -2.48917,-0.14136 -4.94531,-0.28125 1.6285,-2.32986 2.72967,-3.90882 4.24414,-6.02148 0.3579,-7.89752 0.30565,-15.26027 0.25195,-22.62305 -0.16436,-0.081 -0.26398,-0.18525 -0.29492,-0.34766 0.0475,0.0948 0.1673,0.14078 0.36719,0.11133 0.0666,-0.21823 -0.0671,-0.63305 -0.19141,-0.625 -0.0105,6.8e-4 -0.021,0.005 -0.0312,0.0117 -0.14494,0.20634 -0.19066,0.36803 -0.15625,0.47656 -0.0233,-0.18543 0.0446,-0.44797 0.23438,-0.85351 0.18434,-1.23845 0.15976,-2.00832 0.13476,-2.77735 -0.26251,-2.24632 -0.73165,-4.48978 -0.75195,-6.73828 0.0205,2.24784 0.48955,4.49181 0.85742,6.28125 0.27609,-11.05867 0.35549,-21.66339 0.66406,-32.26172 0.10876,-3.73521 0.0988,-7.89133 5.34961,-8.7539 0.12709,0.027 0.23208,0.0338 0.36328,0.0644 0.85678,0.33242 1.31256,0.2763 1.76954,0.2207 1.00106,-0.1495 2.00287,-0.34899 3.0039,-0.51367 -0.93682,0.17547 -1.81739,0.41222 -2.54883,0.61719 30.39068,0.67649 60.3265,1.26783 90.26367,1.74805 1.03626,0.0166 2.09128,-1.07768 2.70508,-1.65039 -3.74383,-0.20242 -7.31238,-0.49588 -10.82617,-0.70313 3.52389,0.17732 7.09944,0.3728 10.88867,0.36719 0.43796,-0.7856 0.38027,-1.23232 0.32227,-1.67969 -0.28604,-6.57988 -0.87409,-13.16631 -0.74805,-19.73828 0.02,-1.0406 -0.0446,-1.89268 -0.2168,-2.58789 0.17197,0.6949 0.23676,1.54814 0.2168,2.58789 -0.12604,6.57197 0.46177,13.15877 0.8457,19.28125 0.0979,-8.71785 0.0977,-16.97861 0.0977,-25.32422 z m 28.28711,101.43164 c 2.45614,0.13989 3.70029,0.21063 4.875,-0.13672 -0.17563,-2.11135 -0.28205,-3.80495 -0.71485,-5.42383 -1.42996,1.6521 -2.53165,3.23069 -4.16015,5.56055 z m 8.83398,-74.38867 c 0.48628,0.0337 1.0204,0.11061 1.58985,0.22265 -0.5808,-0.12562 -1.09383,-0.18252 -1.58985,-0.22265 z m -4.08984,1.63281 c -0.0202,0.0337 -0.0371,0.0727 -0.0566,0.10742 0.0198,-0.0343 0.0362,-0.0741 0.0566,-0.10742 z m -0.47266,1.07617 c -0.0362,0.113 -0.0717,0.22735 -0.10351,0.34766 0.0321,-0.11921 0.0669,-0.23566 0.10351,-0.34766 z m -0.3125,1.40821 c -0.0212,0.14629 -0.0497,0.28104 -0.0664,0.43554 0.0168,-0.15363 0.0451,-0.29005 0.0664,-0.43554 z m 87.97461,98.26953 c -0.7713,0.32851 -1.78502,0.47007 -3.13672,0.46093 1.35091,0.009 2.36562,-0.13289 3.13672,-0.46093 z m 14.57617,102.58984 c 0.0676,2.6562 0.17049,5.31274 0.28125,7.9668 0.0645,1.54432 -0.10061,2.76292 -0.56836,3.68164 0.46751,-0.91866 0.63086,-2.13732 0.56641,-3.68164 -0.11076,-2.65406 -0.21207,-5.3107 -0.2793,-7.9668 z m -131.89062,12.19727 c 0.20304,0.24464 0.42926,0.45968 0.68164,0.64648 0.50477,0.37361 1.11106,0.63669 1.82422,0.80469 -0.71325,-0.16801 -1.31934,-0.43106 -1.82422,-0.80469 -0.25286,-0.18712 -0.47829,-0.40133 -0.68164,-0.64648 z m 131.0332,0.26953 c -0.2264,0.24116 -0.48858,0.44959 -0.79101,0.62695 -0.60391,0.35415 -1.36429,0.58371 -2.30469,0.69531 0.94033,-0.11159 1.70094,-0.34119 2.30469,-0.69531 0.30187,-0.17706 0.56494,-0.3863 0.79101,-0.62695 z" /><path
   d="m 1475.6753,363.97073 q -9.3489,4.52556 -24.4142,4.52556 -19.6505,0 -30.9049,-11.55209 -11.2543,-11.5521 -11.2543,-30.78574 0,-20.48412 12.6239,-33.22715 12.6835,-12.74304 32.8699,-12.74304 12.5048,0 21.0796,3.15599 v 18.51908 q -8.5748,-5.12103 -19.5314,-5.12103 -12.0285,0 -19.4123,7.56245 -7.3838,7.56245 -7.3838,20.48412 0,12.38575 6.967,19.76957 6.967,7.32426 18.7573,7.32426 11.2543,0 20.6032,-5.47831 z m 95.9753,3.03689 h -20.9605 l -6.0738,-18.99545 h -30.3689 l -6.0142,18.99545 h -20.8414 l 31.0834,-85.39022 h 22.8065 z m -31.4407,-33.76308 -9.1703,-28.70159 q -1.0123,-3.21553 -1.4291,-7.68155 h -0.4764 q -0.2977,3.75145 -1.4886,7.44336 l -9.2893,28.93978 z m 44.1695,30.488 v -19.055 q 5.1806,4.34692 11.2544,6.55016 6.0738,2.14369 12.2666,2.14369 3.6324,0 6.312,-0.65502 2.7392,-0.65502 4.5256,-1.78641 1.8459,-1.19093 2.7391,-2.73915 0.8932,-1.60777 0.8932,-3.45372 0,-2.50097 -1.4291,-4.46602 -1.4291,-1.96504 -3.9301,-3.63236 -2.4414,-1.66731 -5.8356,-3.21553 -3.3942,-1.54822 -7.3243,-3.15598 -10.0038,-4.16828 -14.9462,-10.18252 -4.8829,-6.01423 -4.8829,-14.52944 0,-6.66925 2.6796,-11.433 2.6797,-4.82329 7.2648,-7.91973 4.6446,-3.09644 10.7184,-4.52556 6.0738,-1.48868 12.8621,-1.48868 6.6693,0 11.7903,0.83366 5.1806,0.77411 9.5275,2.44142 v 17.80452 q -2.1437,-1.48867 -4.7042,-2.62006 -2.501,-1.1314 -5.1806,-1.84596 -2.6796,-0.77411 -5.3592,-1.13139 -2.6201,-0.35728 -5.0019,-0.35728 -3.2751,0 -5.9547,0.65502 -2.6796,0.59546 -4.5256,1.72686 -1.8459,1.13139 -2.8582,2.73915 -1.0123,1.54822 -1.0123,3.51327 0,2.14369 1.1314,3.87054 1.1314,1.66732 3.2155,3.21554 2.0841,1.48867 5.0615,2.97734 2.9773,1.42912 6.7288,2.97734 5.121,2.14369 9.1702,4.58511 4.1087,2.38188 7.0265,5.41877 2.9178,3.03689 4.466,6.96698 1.5483,3.87055 1.5483,9.05113 0,7.14562 -2.7392,12.02847 -2.6796,4.82329 -7.3243,7.86019 -4.6446,2.97734 -10.8375,4.28737 -6.1333,1.31003 -12.9812,1.31003 -7.0265,0 -13.3981,-1.19094 -6.3119,-1.19093 -10.9566,-3.57281 z m 153.3785,3.27508 h -20.9605 l -6.0738,-18.99545 h -30.3689 l -6.0142,18.99545 h -20.8414 l 31.0835,-85.39022 h 22.8064 z m -31.4407,-33.76308 -9.1702,-28.70159 q -1.0123,-3.21553 -1.4292,-7.68155 h -0.4763 q -0.2978,3.75145 -1.4887,7.44336 l -9.2893,28.93978 z"
   id="text32"
   style="font-weight:bold;font-size:121.952px;line-height:0;font-family:Gadugi;-inkscape-font-specification:'Gadugi, Bold';letter-spacing:6px;fill:#d45500;stroke:#d45500;stroke-width:5;stroke-linejoin:round;paint-order:stroke markers fill"
   aria-label="CASA" />



<path
   id="polygon5"
   style="fill:#ffffff;fill-opacity:1;stroke:none;stroke-width:1.5717;stroke-opacity:1"
   d="m 95.385302,226.17999 10.922088,-9.30265 60.19476,86.92131 -8.79323,12.44842 z" /><polygon
   points="13.404,55.801 14.227,55.618 13.134,51.493 12.236,51.651 "
   id="polygon6"
   transform="matrix(5.149158,-6.1365274,-6.1365274,-5.149158,351.48144,563.6493)"
   style="fill:#ffffff;fill-opacity:1;stroke:none;stroke-width:0.196201;stroke-dasharray:none;stroke-opacity:1" /><polygon
   points="11.125,24.865 21.941,26.556 22.161,25.321 10.332,23.516 "
   id="polygon7"
   transform="matrix(5.149158,-6.1365274,-6.1365274,-5.149158,351.48144,563.6493)"
   style="fill:#ffffff;fill-opacity:1;stroke:none;stroke-width:0.196201;stroke-dasharray:none;stroke-opacity:1" /><path
   style="display:inline;fill:#ffffff;fill-opacity:1;stroke:none;stroke-width:1.5717;stroke-dasharray:none;stroke-opacity:1"
   d="m 252.84396,395.54805 c -1.78149,2.68736 -4.22816,3.33507 -4.22816,3.33507 l -36.3311,-4.11776 -16.71402,-35.16378 -36.56838,-36.91389 10.44235,-18.11605 -68.34531,-143.96752 -19.419961,23.14381 c 0,0 2.193814,1.53843 -0.101997,4.67326 -2.301961,3.1297 -9.051173,5.31326 -11.929206,2.8983 -2.878031,-2.41496 -4.766333,-3.67526 -2.738519,-8.83363 0.195529,-0.49474 0.514889,-0.94014 0.822078,-1.39348 l -0.293181,0.20334 -7.113429,-28.37421 c 0,0 -4.433058,-2.90411 -6.148513,-5.15922 -1.71551,-2.25513 -3.220535,-7.45593 -3.663201,-8.48618 -0.44782,-1.02411 -6.929397,-3.84852 -7.819342,-3.94693 -0.901232,-0.0974 -22.843777,1.11041 -32.328097,-13.70778 C 0.87454197,106.78676 -2.694898,92.342001 2.167242,80.715132 7.011952,69.084107 33.567565,39.009736 33.567565,39.009736 L 33.061841,33.35685 54.322231,8.0197139 68.573905,1.9641495 l -5.10988,16.9942925 2.362909,2.636298 6.254988,-5.555837 c 0,0 3.983415,4.656988 4.447481,9.961259 0.46406,5.30427 -4.077354,18.514266 -4.077354,18.514266 l 21.112873,58.278252 10.883238,13.70714 -0.59184,0.85138 129.80519,187.65474 c 2.55023,-8.28591 7.72287,-19.9524 9.67189,-24.25667 2.47297,-5.46456 78.61011,-134.53598 86.32205,-147.51526 7.71193,-12.97929 34.81908,-63.284299 35.00331,-81.001046 0.0778,-7.295038 0.39512,-13.787303 0.37921,-19.656663 l 0.01,-0.01251 c 0.11452,-0.185093 0.20454,-0.389823 0.30448,-0.581934 0.15078,-0.326713 0.32022,-0.658957 0.49208,-0.975913 0.15255,-0.298972 0.33025,-0.574652 0.51374,-0.85564 0.17478,-0.271858 0.33646,-0.545299 0.50561,-0.821646 0.17003,-0.26495 0.35319,-0.518142 0.54328,-0.769584 0.20112,-0.255902 0.41466,-0.514126 0.62129,-0.765387 0.23966,-0.289341 0.4829,-0.574846 0.72411,-0.86295 0.24237,-0.289466 0.48162,-0.573818 0.7241,-0.862936 l 0.69395,-0.826997 c 0.19802,-0.248467 0.40582,-0.47189 0.62734,-0.699052 0.24302,-0.238516 0.49931,-0.476671 0.77355,-0.678483 0.28322,-0.207927 0.5637,-0.406959 0.84546,-0.618138 0.295,-0.218225 0.599,-0.423984 0.89963,-0.633954 0.32115,-0.23058 0.65095,-0.46533 0.97194,-0.695841 0.26994,-0.205801 0.53803,-0.400164 0.80137,-0.614289 0.19433,-0.170542 0.41178,-0.310799 0.62657,-0.454615 0.20272,-0.133142 0.38706,-0.296276 0.59642,-0.418648 0.21949,-0.123274 0.43165,-0.261447 0.64237,-0.400427 0.212,-0.150528 0.44615,-0.278709 0.66254,-0.424443 0.23163,-0.157685 0.45363,-0.313801 0.69271,-0.460382 0.23708,-0.162898 0.49302,-0.312148 0.73675,-0.464275 0.23065,-0.145316 0.44385,-0.288437 0.67256,-0.436381 0.20764,-0.129111 0.4273,-0.25625 0.63236,-0.388475 0.20619,-0.126054 0.4234,-0.239127 0.62234,-0.376508 0.23573,-0.166303 0.47332,-0.323544 0.71279,-0.484357 0.25089,-0.161869 0.49082,-0.341292 0.74492,-0.498283 0.24908,-0.148471 0.49417,-0.286603 0.73873,-0.44219 0.0147,-0.0083 0.0281,-0.01723 0.0427,-0.02585 0.0486,-0.02182 0.0907,-0.0221 0.14055,-0.04545 7.89534,-3.712359 15.70588,-7.6020427 23.52908,-11.4649308 0.045,0.00139 0.0894,0.00834 0.13425,0.00973 0.36955,0.015288 0.73373,0.045029 1.1036,0.047809 0.29039,0.011118 0.5784,0.067266 0.86502,0.1132681 0.32482,0.065459 0.64475,0.1223018 0.96283,0.2156542 0.3102,0.094089 0.62157,0.1961693 0.92645,0.3076585 0.30205,0.095479 0.60642,0.1728902 0.90248,0.2875342 0.27576,0.098675 0.56799,0.1925837 0.82825,0.3273241 0.2601,0.1157698 0.51421,0.2386275 0.75593,0.3891837 0.24498,0.1564629 0.47206,0.3249753 0.70967,0.4929735 0.11869,0.07755 0.23786,0.1536416 0.36374,0.2236733 l 4.19266,4.7639332 c 0,0 14.16051,34.334476 -5.84827,76.973284 1.41063,7.15471 7.22819,37.592602 6.05077,46.946802 -0.89933,7.20326 -11.02628,19.61929 -22.22924,32.79597 -2.66605,3.12745 -4.71923,5.66903 -7.96029,8.65909 -2.59734,2.22303 -10.76822,10.2958 -14.32683,11.67043 l -52.38993,87.01991 3.41064,2.04486 -11.21408,15.89583 -13.45621,-7.57389 8.67082,-17.92777 2.27501,1.37797 58.93049,-99.97481 -3.81217,-4.73062 c -39.41662,60.82061 -88.54829,132.35109 -88.54829,132.35109 0,0 -11.38456,18.27838 -18.78639,22.38875 -7.35252,4.08899 -13.9283,12.35136 -18.22686,17.48665 3.18613,13.47579 6.43272,26.90895 7.5982,30.74171 2.55831,8.37912 6.85864,18.68964 5.52269,24.28217 -0.33244,1.39942 -0.85011,2.52888 -1.44393,3.42467 z M 390.33405,167.48319 c 7.02105,-8.26764 21.78107,-26.59249 22.54514,-32.6126 0.94532,-7.45749 -2.83478,-28.30725 -4.68137,-37.260412 -2.30876,4.222012 -5.124,9.112302 -8.35682,14.535302 l -8.4988,45.1546 0.0859,3.0132 -9.52109,15.82546 c 2.29559,-2.16253 5.37477,-5.06787 8.42701,-8.65555 z M 92.569512,160.59521 c 2.993972,-3.66403 5.301646,-6.80504 5.301685,-6.80509 l -8.115243,-17.10328 c -1.738547,-0.89412 -6.947303,-3.03345 -11.265153,0.84119 -5.283906,4.72686 -5.802864,6.91558 -5.802864,6.91558 l 6.643926,28.59297 c 1.341169,-0.78827 2.663867,-1.59174 3.814592,-2.47709 2.752353,-2.10867 6.429409,-6.29998 9.423072,-9.96426 z"
   id="path7-8" /></svg>
